%TF.GenerationSoftware,KiCad,Pcbnew,(5.1.10)-1*%
%TF.CreationDate,2021-09-21T20:51:07-05:00*%
%TF.ProjectId,FightKey_DirectionModule,46696768-744b-4657-995f-446972656374,rev?*%
%TF.SameCoordinates,Original*%
%TF.FileFunction,Soldermask,Top*%
%TF.FilePolarity,Negative*%
%FSLAX46Y46*%
G04 Gerber Fmt 4.6, Leading zero omitted, Abs format (unit mm)*
G04 Created by KiCad (PCBNEW (5.1.10)-1) date 2021-09-21 20:51:07*
%MOMM*%
%LPD*%
G01*
G04 APERTURE LIST*
%ADD10O,1.700000X1.700000*%
%ADD11R,1.700000X1.700000*%
%ADD12C,2.248000*%
%ADD13O,1.400000X1.400000*%
%ADD14C,1.400000*%
G04 APERTURE END LIST*
D10*
%TO.C,J1*%
X66040000Y-29210000D03*
X63500000Y-29210000D03*
X60960000Y-29210000D03*
X58420000Y-29210000D03*
X55880000Y-29210000D03*
X53340000Y-29210000D03*
X50800000Y-29210000D03*
X48260000Y-29210000D03*
X45720000Y-29210000D03*
X43180000Y-29210000D03*
X40640000Y-29210000D03*
X38100000Y-29210000D03*
X35560000Y-29210000D03*
X33020000Y-29210000D03*
X30480000Y-29210000D03*
D11*
X27940000Y-29210000D03*
%TD*%
D12*
%TO.C,S456*%
X210185000Y-86360000D03*
X203835000Y-88900000D03*
%TD*%
%TO.C,S123*%
X210185000Y-47625000D03*
X203835000Y-50165000D03*
%TD*%
%TO.C,S6*%
X188595000Y-38735000D03*
X182245000Y-41275000D03*
%TD*%
%TO.C,S5*%
X166370000Y-38735000D03*
X160020000Y-41275000D03*
%TD*%
%TO.C,S4*%
X144780000Y-56515000D03*
X138430000Y-59055000D03*
%TD*%
%TO.C,S3*%
X188595000Y-77470000D03*
X182245000Y-80010000D03*
%TD*%
%TO.C,S2*%
X166370000Y-77470000D03*
X160020000Y-80010000D03*
%TD*%
%TO.C,S1*%
X144780000Y-95250000D03*
X138430000Y-97790000D03*
%TD*%
D13*
%TO.C,R14*%
X102870000Y-76200000D03*
D14*
X105410000Y-76200000D03*
%TD*%
D13*
%TO.C,R13*%
X102870000Y-66040000D03*
D14*
X105410000Y-66040000D03*
%TD*%
D13*
%TO.C,R12*%
X102870000Y-60960000D03*
D14*
X105410000Y-60960000D03*
%TD*%
D13*
%TO.C,R11*%
X102870000Y-71120000D03*
D14*
X105410000Y-71120000D03*
%TD*%
D13*
%TO.C,R10*%
X102870000Y-55880000D03*
D14*
X105410000Y-55880000D03*
%TD*%
D13*
%TO.C,R9*%
X102870000Y-86360000D03*
D14*
X105410000Y-86360000D03*
%TD*%
D13*
%TO.C,R8*%
X102870000Y-81280000D03*
D14*
X105410000Y-81280000D03*
%TD*%
D13*
%TO.C,R7*%
X102870000Y-91440000D03*
D14*
X105410000Y-91440000D03*
%TD*%
D12*
%TO.C,SU1*%
X58420000Y-60960000D03*
X52070000Y-63500000D03*
%TD*%
%TO.C,SS1*%
X90170000Y-31750000D03*
X83820000Y-34290000D03*
%TD*%
%TO.C,SR1*%
X80010000Y-82550000D03*
X73660000Y-85090000D03*
%TD*%
%TO.C,SL1*%
X36830000Y-82550000D03*
X30480000Y-85090000D03*
%TD*%
%TO.C,SE1*%
X111760000Y-31750000D03*
X105410000Y-34290000D03*
%TD*%
%TO.C,SD1*%
X58420000Y-82550000D03*
X52070000Y-85090000D03*
%TD*%
D13*
%TO.C,R6*%
X25400000Y-66040000D03*
D14*
X27940000Y-66040000D03*
%TD*%
D13*
%TO.C,R5*%
X25400000Y-60960000D03*
D14*
X27940000Y-60960000D03*
%TD*%
D13*
%TO.C,R4*%
X25400000Y-55880000D03*
D14*
X27940000Y-55880000D03*
%TD*%
D13*
%TO.C,R3*%
X25400000Y-50800000D03*
D14*
X27940000Y-50800000D03*
%TD*%
D13*
%TO.C,R2*%
X25400000Y-45720000D03*
D14*
X27940000Y-45720000D03*
%TD*%
D13*
%TO.C,R1*%
X25400000Y-40640000D03*
D14*
X27940000Y-40640000D03*
%TD*%
M02*
