%TF.GenerationSoftware,KiCad,Pcbnew,(5.1.10)-1*%
%TF.CreationDate,2021-09-21T20:51:06-05:00*%
%TF.ProjectId,FightKey_DirectionModule,46696768-744b-4657-995f-446972656374,rev?*%
%TF.SameCoordinates,Original*%
%TF.FileFunction,Copper,L1,Top*%
%TF.FilePolarity,Positive*%
%FSLAX46Y46*%
G04 Gerber Fmt 4.6, Leading zero omitted, Abs format (unit mm)*
G04 Created by KiCad (PCBNEW (5.1.10)-1) date 2021-09-21 20:51:06*
%MOMM*%
%LPD*%
G01*
G04 APERTURE LIST*
%TA.AperFunction,ComponentPad*%
%ADD10O,1.700000X1.700000*%
%TD*%
%TA.AperFunction,ComponentPad*%
%ADD11R,1.700000X1.700000*%
%TD*%
%TA.AperFunction,ComponentPad*%
%ADD12C,2.248000*%
%TD*%
%TA.AperFunction,ComponentPad*%
%ADD13O,1.400000X1.400000*%
%TD*%
%TA.AperFunction,ComponentPad*%
%ADD14C,1.400000*%
%TD*%
%TA.AperFunction,ViaPad*%
%ADD15C,0.800000*%
%TD*%
%TA.AperFunction,Conductor*%
%ADD16C,0.250000*%
%TD*%
G04 APERTURE END LIST*
D10*
%TO.P,J1,16*%
%TO.N,/GND*%
X66040000Y-29210000D03*
%TO.P,J1,15*%
%TO.N,/VCC*%
X63500000Y-29210000D03*
%TO.P,J1,14*%
%TO.N,/NENTER*%
X60960000Y-29210000D03*
%TO.P,J1,13*%
%TO.N,/N6*%
X58420000Y-29210000D03*
%TO.P,J1,12*%
%TO.N,/N5*%
X55880000Y-29210000D03*
%TO.P,J1,11*%
%TO.N,/N4*%
X53340000Y-29210000D03*
%TO.P,J1,10*%
%TO.N,/NPLUS*%
X50800000Y-29210000D03*
%TO.P,J1,9*%
%TO.N,/N3*%
X48260000Y-29210000D03*
%TO.P,J1,8*%
%TO.N,/N2*%
X45720000Y-29210000D03*
%TO.P,J1,7*%
%TO.N,/N1*%
X43180000Y-29210000D03*
%TO.P,J1,6*%
%TO.N,/SHIFT*%
X40640000Y-29210000D03*
%TO.P,J1,5*%
%TO.N,/ENTER*%
X38100000Y-29210000D03*
%TO.P,J1,4*%
%TO.N,/RIGHT*%
X35560000Y-29210000D03*
%TO.P,J1,3*%
%TO.N,/LEFT*%
X33020000Y-29210000D03*
%TO.P,J1,2*%
%TO.N,/DOWN*%
X30480000Y-29210000D03*
D11*
%TO.P,J1,1*%
%TO.N,/UP*%
X27940000Y-29210000D03*
%TD*%
D12*
%TO.P,S456,2*%
%TO.N,/NENTER*%
X210185000Y-86360000D03*
%TO.P,S456,1*%
%TO.N,/VCC*%
X203835000Y-88900000D03*
%TD*%
%TO.P,S123,2*%
%TO.N,/NPLUS*%
X210185000Y-47625000D03*
%TO.P,S123,1*%
%TO.N,/VCC*%
X203835000Y-50165000D03*
%TD*%
%TO.P,S6,2*%
%TO.N,/N6*%
X188595000Y-38735000D03*
%TO.P,S6,1*%
%TO.N,/VCC*%
X182245000Y-41275000D03*
%TD*%
%TO.P,S5,2*%
%TO.N,/N5*%
X166370000Y-38735000D03*
%TO.P,S5,1*%
%TO.N,/VCC*%
X160020000Y-41275000D03*
%TD*%
%TO.P,S4,2*%
%TO.N,/N4*%
X144780000Y-56515000D03*
%TO.P,S4,1*%
%TO.N,/VCC*%
X138430000Y-59055000D03*
%TD*%
%TO.P,S3,2*%
%TO.N,/N3*%
X188595000Y-77470000D03*
%TO.P,S3,1*%
%TO.N,/VCC*%
X182245000Y-80010000D03*
%TD*%
%TO.P,S2,2*%
%TO.N,/N2*%
X166370000Y-77470000D03*
%TO.P,S2,1*%
%TO.N,/VCC*%
X160020000Y-80010000D03*
%TD*%
%TO.P,S1,2*%
%TO.N,/N1*%
X144780000Y-95250000D03*
%TO.P,S1,1*%
%TO.N,/VCC*%
X138430000Y-97790000D03*
%TD*%
D13*
%TO.P,R14,2*%
%TO.N,/GND*%
X102870000Y-76200000D03*
D14*
%TO.P,R14,1*%
%TO.N,/NENTER*%
X105410000Y-76200000D03*
%TD*%
D13*
%TO.P,R13,2*%
%TO.N,/GND*%
X102870000Y-66040000D03*
D14*
%TO.P,R13,1*%
%TO.N,/N6*%
X105410000Y-66040000D03*
%TD*%
D13*
%TO.P,R12,2*%
%TO.N,/GND*%
X102870000Y-60960000D03*
D14*
%TO.P,R12,1*%
%TO.N,/N5*%
X105410000Y-60960000D03*
%TD*%
D13*
%TO.P,R11,2*%
%TO.N,/GND*%
X102870000Y-71120000D03*
D14*
%TO.P,R11,1*%
%TO.N,/N4*%
X105410000Y-71120000D03*
%TD*%
D13*
%TO.P,R10,2*%
%TO.N,/GND*%
X102870000Y-55880000D03*
D14*
%TO.P,R10,1*%
%TO.N,/NPLUS*%
X105410000Y-55880000D03*
%TD*%
D13*
%TO.P,R9,2*%
%TO.N,/GND*%
X102870000Y-86360000D03*
D14*
%TO.P,R9,1*%
%TO.N,/N3*%
X105410000Y-86360000D03*
%TD*%
D13*
%TO.P,R8,2*%
%TO.N,/GND*%
X102870000Y-81280000D03*
D14*
%TO.P,R8,1*%
%TO.N,/N2*%
X105410000Y-81280000D03*
%TD*%
D13*
%TO.P,R7,2*%
%TO.N,/GND*%
X102870000Y-91440000D03*
D14*
%TO.P,R7,1*%
%TO.N,/N1*%
X105410000Y-91440000D03*
%TD*%
D12*
%TO.P,SU1,2*%
%TO.N,/UP*%
X58420000Y-60960000D03*
%TO.P,SU1,1*%
%TO.N,/VCC*%
X52070000Y-63500000D03*
%TD*%
%TO.P,SS1,2*%
%TO.N,/SHIFT*%
X90170000Y-31750000D03*
%TO.P,SS1,1*%
%TO.N,/VCC*%
X83820000Y-34290000D03*
%TD*%
%TO.P,SR1,2*%
%TO.N,/RIGHT*%
X80010000Y-82550000D03*
%TO.P,SR1,1*%
%TO.N,/VCC*%
X73660000Y-85090000D03*
%TD*%
%TO.P,SL1,2*%
%TO.N,/LEFT*%
X36830000Y-82550000D03*
%TO.P,SL1,1*%
%TO.N,/VCC*%
X30480000Y-85090000D03*
%TD*%
%TO.P,SE1,2*%
%TO.N,/ENTER*%
X111760000Y-31750000D03*
%TO.P,SE1,1*%
%TO.N,/VCC*%
X105410000Y-34290000D03*
%TD*%
%TO.P,SD1,2*%
%TO.N,/DOWN*%
X58420000Y-82550000D03*
%TO.P,SD1,1*%
%TO.N,/VCC*%
X52070000Y-85090000D03*
%TD*%
D13*
%TO.P,R6,2*%
%TO.N,/GND*%
X25400000Y-66040000D03*
D14*
%TO.P,R6,1*%
%TO.N,/SHIFT*%
X27940000Y-66040000D03*
%TD*%
D13*
%TO.P,R5,2*%
%TO.N,/GND*%
X25400000Y-60960000D03*
D14*
%TO.P,R5,1*%
%TO.N,/ENTER*%
X27940000Y-60960000D03*
%TD*%
D13*
%TO.P,R4,2*%
%TO.N,/GND*%
X25400000Y-55880000D03*
D14*
%TO.P,R4,1*%
%TO.N,/RIGHT*%
X27940000Y-55880000D03*
%TD*%
D13*
%TO.P,R3,2*%
%TO.N,/GND*%
X25400000Y-50800000D03*
D14*
%TO.P,R3,1*%
%TO.N,/LEFT*%
X27940000Y-50800000D03*
%TD*%
D13*
%TO.P,R2,2*%
%TO.N,/GND*%
X25400000Y-45720000D03*
D14*
%TO.P,R2,1*%
%TO.N,/DOWN*%
X27940000Y-45720000D03*
%TD*%
D13*
%TO.P,R1,2*%
%TO.N,/GND*%
X25400000Y-40640000D03*
D14*
%TO.P,R1,1*%
%TO.N,/UP*%
X27940000Y-40640000D03*
%TD*%
D15*
%TO.N,/VCC*%
X148590000Y-58420000D03*
X156845000Y-50165000D03*
X113665000Y-57150000D03*
X72390000Y-37465000D03*
%TO.N,/RIGHT*%
X36830000Y-49530000D03*
X39370000Y-52070000D03*
%TO.N,/DOWN*%
X50800000Y-68580000D03*
%TO.N,/UP*%
X45720000Y-59690000D03*
%TO.N,/N2*%
X49530000Y-41910000D03*
X46355000Y-37555000D03*
X46550153Y-32824847D03*
%TO.N,/N1*%
X48260000Y-35560000D03*
X59055000Y-39915000D03*
%TO.N,/N3*%
X59055000Y-38735000D03*
X48260000Y-33020000D03*
%TO.N,/NPLUS*%
X69850000Y-29210000D03*
%TO.N,/N4*%
X58420000Y-34290000D03*
X65405000Y-39915000D03*
%TO.N,/N5*%
X60325000Y-33655000D03*
X74930000Y-39370000D03*
%TO.N,/N6*%
X61399847Y-32824847D03*
X76835000Y-38735000D03*
X93345000Y-55155000D03*
%TO.N,/NENTER*%
X61595000Y-38735000D03*
X54610000Y-32475000D03*
X53340000Y-31025000D03*
%TD*%
D16*
%TO.N,/GND*%
X25400000Y-40640000D02*
X25400000Y-45720000D01*
X25400000Y-50800000D02*
X25400000Y-45720000D01*
X25400000Y-50800000D02*
X25400000Y-55880000D01*
X25400000Y-55880000D02*
X25400000Y-60960000D01*
X25400000Y-60960000D02*
X25400000Y-66040000D01*
X102870000Y-76200000D02*
X102870000Y-71120000D01*
X102870000Y-71120000D02*
X102870000Y-66040000D01*
X102870000Y-60960000D02*
X102870000Y-55880000D01*
X102870000Y-81280000D02*
X102870000Y-86360000D01*
X102870000Y-86360000D02*
X102870000Y-91440000D01*
%TO.N,/VCC*%
X182245000Y-80010000D02*
X160020000Y-80010000D01*
X156210000Y-80010000D02*
X138430000Y-97790000D01*
X160020000Y-80010000D02*
X156210000Y-80010000D01*
X156210000Y-80010000D02*
X150495000Y-80010000D01*
X138430000Y-67945000D02*
X138430000Y-59055000D01*
X150495000Y-80010000D02*
X138430000Y-67945000D01*
X147955000Y-59055000D02*
X148590000Y-58420000D01*
X138430000Y-59055000D02*
X147955000Y-59055000D01*
X160020000Y-46990000D02*
X160020000Y-41275000D01*
X156845000Y-50165000D02*
X160020000Y-46990000D01*
X160020000Y-41275000D02*
X182245000Y-41275000D01*
X115570000Y-59055000D02*
X113665000Y-57150000D01*
X138430000Y-59055000D02*
X115570000Y-59055000D01*
X75565000Y-34290000D02*
X83820000Y-34290000D01*
X72390000Y-37465000D02*
X75565000Y-34290000D01*
%TO.N,/SHIFT*%
X43180000Y-31750000D02*
X40640000Y-29210000D01*
X52070000Y-31750000D02*
X43180000Y-31750000D01*
X90170000Y-31750000D02*
X52070000Y-31750000D01*
X52070000Y-31750000D02*
X50800000Y-31750000D01*
%TO.N,/ENTER*%
X38100000Y-30480000D02*
X38100000Y-29210000D01*
X48260000Y-40640000D02*
X38100000Y-30480000D01*
X27940000Y-60960000D02*
X48260000Y-40640000D01*
X110310999Y-30300999D02*
X111760000Y-31750000D01*
X90170000Y-40640000D02*
X100509001Y-30300999D01*
X100509001Y-30300999D02*
X110310999Y-30300999D01*
X48260000Y-40640000D02*
X90170000Y-40640000D01*
%TO.N,/RIGHT*%
X35560000Y-48260000D02*
X35560000Y-29210000D01*
X27940000Y-55880000D02*
X35560000Y-48260000D01*
X35560000Y-48260000D02*
X36830000Y-49530000D01*
X80010000Y-64770000D02*
X80010000Y-82550000D01*
X72390000Y-57150000D02*
X80010000Y-64770000D01*
X44450000Y-57150000D02*
X72390000Y-57150000D01*
X39370000Y-52070000D02*
X44450000Y-57150000D01*
%TO.N,/LEFT*%
X33020000Y-45720000D02*
X33020000Y-29210000D01*
X27940000Y-50800000D02*
X33020000Y-45720000D01*
%TO.N,/DOWN*%
X30480000Y-43180000D02*
X30480000Y-29210000D01*
X27940000Y-45720000D02*
X30480000Y-43180000D01*
X58420000Y-76200000D02*
X58420000Y-82550000D01*
X50800000Y-68580000D02*
X58420000Y-76200000D01*
%TO.N,/UP*%
X27940000Y-40640000D02*
X27940000Y-29210000D01*
X46990000Y-60960000D02*
X58420000Y-60960000D01*
X45720000Y-59690000D02*
X46990000Y-60960000D01*
%TO.N,/N2*%
X66040000Y-41910000D02*
X49530000Y-41910000D01*
X105410000Y-81280000D02*
X66040000Y-41910000D01*
X46355000Y-33020000D02*
X46550153Y-32824847D01*
X46355000Y-37555000D02*
X46355000Y-33020000D01*
%TO.N,/N1*%
X52615000Y-39915000D02*
X59055000Y-39915000D01*
X48260000Y-35560000D02*
X52615000Y-39915000D01*
%TO.N,/N3*%
X54374999Y-39134999D02*
X48260000Y-33020000D01*
X58655001Y-39134999D02*
X54374999Y-39134999D01*
X59055000Y-38735000D02*
X58655001Y-39134999D01*
%TO.N,/NPLUS*%
X106224001Y-55065999D02*
X192584001Y-55065999D01*
X105410000Y-55880000D02*
X106224001Y-55065999D01*
X200025000Y-47625000D02*
X210185000Y-47625000D01*
X192584001Y-55065999D02*
X200025000Y-47625000D01*
X69850000Y-29210000D02*
X67945000Y-27305000D01*
X52705000Y-27305000D02*
X50800000Y-29210000D01*
X67945000Y-27305000D02*
X52705000Y-27305000D01*
%TO.N,/N4*%
X64045000Y-39915000D02*
X65405000Y-39915000D01*
X58420000Y-34290000D02*
X64045000Y-39915000D01*
%TO.N,/N5*%
X66040000Y-39370000D02*
X74930000Y-39370000D01*
X60325000Y-33655000D02*
X66040000Y-39370000D01*
%TO.N,/N6*%
X61399847Y-32824847D02*
X67310000Y-38735000D01*
X76744999Y-38644999D02*
X76835000Y-38735000D01*
X67400001Y-38644999D02*
X76744999Y-38644999D01*
X67310000Y-38735000D02*
X67400001Y-38644999D01*
X94525000Y-55155000D02*
X105410000Y-66040000D01*
X93345000Y-55155000D02*
X94525000Y-55155000D01*
%TO.N,/NENTER*%
X60870000Y-38735000D02*
X54610000Y-32475000D01*
X61595000Y-38735000D02*
X60870000Y-38735000D01*
X59145000Y-31025000D02*
X60960000Y-29210000D01*
X53340000Y-31025000D02*
X59145000Y-31025000D01*
%TD*%
M02*
