M48
; DRILL file {KiCad (5.1.10)-1} date 09/21/21 20:51:11
; FORMAT={-:-/ absolute / inch / decimal}
; #@! TF.CreationDate,2021-09-21T20:51:11-05:00
; #@! TF.GenerationSoftware,Kicad,Pcbnew,(5.1.10)-1
FMAT,2
INCH
T1C0.0157
T2C0.0276
T3C0.0394
T4C0.0590
T5C0.1570
%
G90
G05
T1
X1.45Y-1.95
X1.55Y-2.05
X1.8Y-2.35
X1.825Y-1.4785
X1.8327Y-1.2923
X1.9Y-1.3
X1.9Y-1.4
X1.95Y-1.65
X2.0Y-2.7
X2.1Y-1.2215
X2.15Y-1.2785
X2.3Y-1.35
X2.325Y-1.525
X2.325Y-1.5715
X2.375Y-1.325
X2.4173Y-1.2923
X2.425Y-1.525
X2.575Y-1.5715
X2.75Y-1.15
X2.85Y-1.475
X2.95Y-1.55
X3.025Y-1.525
X3.675Y-2.1715
X4.475Y-2.25
X5.85Y-2.3
X6.175Y-1.975
T2
X1.0Y-1.6
X1.0Y-1.8
X1.0Y-2.0
X1.0Y-2.2
X1.0Y-2.4
X1.0Y-2.6
X1.1Y-1.6
X1.1Y-1.8
X1.1Y-2.0
X1.1Y-2.2
X1.1Y-2.4
X1.1Y-2.6
X4.05Y-2.2
X4.05Y-2.4
X4.05Y-2.6
X4.05Y-2.8
X4.05Y-3.0
X4.05Y-3.2
X4.05Y-3.4
X4.05Y-3.6
X4.15Y-2.2
X4.15Y-2.4
X4.15Y-2.6
X4.15Y-2.8
X4.15Y-3.0
X4.15Y-3.2
X4.15Y-3.4
X4.15Y-3.6
T3
X1.1Y-1.15
X1.2Y-1.15
X1.3Y-1.15
X1.4Y-1.15
X1.5Y-1.15
X1.6Y-1.15
X1.7Y-1.15
X1.8Y-1.15
X1.9Y-1.15
X2.0Y-1.15
X2.1Y-1.15
X2.2Y-1.15
X2.3Y-1.15
X2.4Y-1.15
X2.5Y-1.15
X2.6Y-1.15
T4
X1.2Y-3.35
X1.45Y-3.25
X2.05Y-2.5
X2.05Y-3.35
X2.3Y-2.4
X2.3Y-3.25
X2.9Y-3.35
X3.15Y-3.25
X3.3Y-1.35
X3.55Y-1.25
X4.15Y-1.35
X4.4Y-1.25
X5.45Y-2.325
X5.45Y-3.85
X5.7Y-2.225
X5.7Y-3.75
X6.3Y-1.625
X6.3Y-3.15
X6.55Y-1.525
X6.55Y-3.05
X7.175Y-1.625
X7.175Y-3.15
X7.425Y-1.525
X7.425Y-3.05
X8.025Y-1.975
X8.025Y-3.5
X8.275Y-1.875
X8.275Y-3.4
T5
X1.35Y-3.45
X2.2Y-2.6
X2.2Y-3.45
X3.05Y-3.45
X3.45Y-1.45
X4.3Y-1.45
X5.6Y-2.425
X5.6Y-3.95
X6.45Y-1.725
X6.45Y-3.25
X7.325Y-1.725
X7.325Y-3.25
X8.175Y-2.075
X8.175Y-3.6
T0
M30
