%TF.GenerationSoftware,KiCad,Pcbnew,(5.1.10)-1*%
%TF.CreationDate,2021-09-21T20:51:06-05:00*%
%TF.ProjectId,FightKey_DirectionModule,46696768-744b-4657-995f-446972656374,rev?*%
%TF.SameCoordinates,Original*%
%TF.FileFunction,Legend,Top*%
%TF.FilePolarity,Positive*%
%FSLAX46Y46*%
G04 Gerber Fmt 4.6, Leading zero omitted, Abs format (unit mm)*
G04 Created by KiCad (PCBNEW (5.1.10)-1) date 2021-09-21 20:51:06*
%MOMM*%
%LPD*%
G01*
G04 APERTURE LIST*
%ADD10C,0.120000*%
%ADD11C,0.200000*%
%ADD12C,0.150000*%
%ADD13C,0.254000*%
G04 APERTURE END LIST*
D10*
%TO.C,J1*%
X67370000Y-30540000D02*
X67370000Y-27880000D01*
X29210000Y-30540000D02*
X67370000Y-30540000D01*
X29210000Y-27880000D02*
X67370000Y-27880000D01*
X29210000Y-30540000D02*
X29210000Y-27880000D01*
X27940000Y-30540000D02*
X26610000Y-30540000D01*
X26610000Y-30540000D02*
X26610000Y-29210000D01*
D11*
%TO.C,S456*%
X199235000Y-88900000D02*
G75*
G02*
X199135000Y-88900000I-50000J0D01*
G01*
X199135000Y-88900000D02*
G75*
G02*
X199235000Y-88900000I50000J0D01*
G01*
X199235000Y-88900000D02*
G75*
G02*
X199135000Y-88900000I-50000J0D01*
G01*
X199845000Y-99240000D02*
X215445000Y-99240000D01*
X215445000Y-99240000D02*
X215445000Y-83640000D01*
X215445000Y-83640000D02*
X199845000Y-83640000D01*
X199845000Y-83640000D02*
X199845000Y-99240000D01*
X199135000Y-88900000D02*
X199135000Y-88900000D01*
X199235000Y-88900000D02*
X199235000Y-88900000D01*
X199135000Y-88900000D02*
X199135000Y-88900000D01*
%TO.C,S123*%
X199235000Y-50165000D02*
G75*
G02*
X199135000Y-50165000I-50000J0D01*
G01*
X199135000Y-50165000D02*
G75*
G02*
X199235000Y-50165000I50000J0D01*
G01*
X199235000Y-50165000D02*
G75*
G02*
X199135000Y-50165000I-50000J0D01*
G01*
X199845000Y-60505000D02*
X215445000Y-60505000D01*
X215445000Y-60505000D02*
X215445000Y-44905000D01*
X215445000Y-44905000D02*
X199845000Y-44905000D01*
X199845000Y-44905000D02*
X199845000Y-60505000D01*
X199135000Y-50165000D02*
X199135000Y-50165000D01*
X199235000Y-50165000D02*
X199235000Y-50165000D01*
X199135000Y-50165000D02*
X199135000Y-50165000D01*
%TO.C,S6*%
X177645000Y-41275000D02*
G75*
G02*
X177545000Y-41275000I-50000J0D01*
G01*
X177545000Y-41275000D02*
G75*
G02*
X177645000Y-41275000I50000J0D01*
G01*
X177645000Y-41275000D02*
G75*
G02*
X177545000Y-41275000I-50000J0D01*
G01*
X178255000Y-51615000D02*
X193855000Y-51615000D01*
X193855000Y-51615000D02*
X193855000Y-36015000D01*
X193855000Y-36015000D02*
X178255000Y-36015000D01*
X178255000Y-36015000D02*
X178255000Y-51615000D01*
X177545000Y-41275000D02*
X177545000Y-41275000D01*
X177645000Y-41275000D02*
X177645000Y-41275000D01*
X177545000Y-41275000D02*
X177545000Y-41275000D01*
%TO.C,S5*%
X155420000Y-41275000D02*
G75*
G02*
X155320000Y-41275000I-50000J0D01*
G01*
X155320000Y-41275000D02*
G75*
G02*
X155420000Y-41275000I50000J0D01*
G01*
X155420000Y-41275000D02*
G75*
G02*
X155320000Y-41275000I-50000J0D01*
G01*
X156030000Y-51615000D02*
X171630000Y-51615000D01*
X171630000Y-51615000D02*
X171630000Y-36015000D01*
X171630000Y-36015000D02*
X156030000Y-36015000D01*
X156030000Y-36015000D02*
X156030000Y-51615000D01*
X155320000Y-41275000D02*
X155320000Y-41275000D01*
X155420000Y-41275000D02*
X155420000Y-41275000D01*
X155320000Y-41275000D02*
X155320000Y-41275000D01*
%TO.C,S4*%
X133830000Y-59055000D02*
G75*
G02*
X133730000Y-59055000I-50000J0D01*
G01*
X133730000Y-59055000D02*
G75*
G02*
X133830000Y-59055000I50000J0D01*
G01*
X133830000Y-59055000D02*
G75*
G02*
X133730000Y-59055000I-50000J0D01*
G01*
X134440000Y-69395000D02*
X150040000Y-69395000D01*
X150040000Y-69395000D02*
X150040000Y-53795000D01*
X150040000Y-53795000D02*
X134440000Y-53795000D01*
X134440000Y-53795000D02*
X134440000Y-69395000D01*
X133730000Y-59055000D02*
X133730000Y-59055000D01*
X133830000Y-59055000D02*
X133830000Y-59055000D01*
X133730000Y-59055000D02*
X133730000Y-59055000D01*
%TO.C,S3*%
X177645000Y-80010000D02*
G75*
G02*
X177545000Y-80010000I-50000J0D01*
G01*
X177545000Y-80010000D02*
G75*
G02*
X177645000Y-80010000I50000J0D01*
G01*
X177645000Y-80010000D02*
G75*
G02*
X177545000Y-80010000I-50000J0D01*
G01*
X178255000Y-90350000D02*
X193855000Y-90350000D01*
X193855000Y-90350000D02*
X193855000Y-74750000D01*
X193855000Y-74750000D02*
X178255000Y-74750000D01*
X178255000Y-74750000D02*
X178255000Y-90350000D01*
X177545000Y-80010000D02*
X177545000Y-80010000D01*
X177645000Y-80010000D02*
X177645000Y-80010000D01*
X177545000Y-80010000D02*
X177545000Y-80010000D01*
%TO.C,S2*%
X155420000Y-80010000D02*
G75*
G02*
X155320000Y-80010000I-50000J0D01*
G01*
X155320000Y-80010000D02*
G75*
G02*
X155420000Y-80010000I50000J0D01*
G01*
X155420000Y-80010000D02*
G75*
G02*
X155320000Y-80010000I-50000J0D01*
G01*
X156030000Y-90350000D02*
X171630000Y-90350000D01*
X171630000Y-90350000D02*
X171630000Y-74750000D01*
X171630000Y-74750000D02*
X156030000Y-74750000D01*
X156030000Y-74750000D02*
X156030000Y-90350000D01*
X155320000Y-80010000D02*
X155320000Y-80010000D01*
X155420000Y-80010000D02*
X155420000Y-80010000D01*
X155320000Y-80010000D02*
X155320000Y-80010000D01*
%TO.C,S1*%
X133830000Y-97790000D02*
G75*
G02*
X133730000Y-97790000I-50000J0D01*
G01*
X133730000Y-97790000D02*
G75*
G02*
X133830000Y-97790000I50000J0D01*
G01*
X133830000Y-97790000D02*
G75*
G02*
X133730000Y-97790000I-50000J0D01*
G01*
X134440000Y-108130000D02*
X150040000Y-108130000D01*
X150040000Y-108130000D02*
X150040000Y-92530000D01*
X150040000Y-92530000D02*
X134440000Y-92530000D01*
X134440000Y-92530000D02*
X134440000Y-108130000D01*
X133730000Y-97790000D02*
X133730000Y-97790000D01*
X133830000Y-97790000D02*
X133830000Y-97790000D01*
X133730000Y-97790000D02*
X133730000Y-97790000D01*
D10*
%TO.C,R14*%
X106330000Y-76200000D02*
G75*
G03*
X106330000Y-76200000I-920000J0D01*
G01*
X104490000Y-76200000D02*
X103870000Y-76200000D01*
%TO.C,R13*%
X106330000Y-66040000D02*
G75*
G03*
X106330000Y-66040000I-920000J0D01*
G01*
X104490000Y-66040000D02*
X103870000Y-66040000D01*
%TO.C,R12*%
X106330000Y-60960000D02*
G75*
G03*
X106330000Y-60960000I-920000J0D01*
G01*
X104490000Y-60960000D02*
X103870000Y-60960000D01*
%TO.C,R11*%
X106330000Y-71120000D02*
G75*
G03*
X106330000Y-71120000I-920000J0D01*
G01*
X104490000Y-71120000D02*
X103870000Y-71120000D01*
%TO.C,R10*%
X106330000Y-55880000D02*
G75*
G03*
X106330000Y-55880000I-920000J0D01*
G01*
X104490000Y-55880000D02*
X103870000Y-55880000D01*
%TO.C,R9*%
X106330000Y-86360000D02*
G75*
G03*
X106330000Y-86360000I-920000J0D01*
G01*
X104490000Y-86360000D02*
X103870000Y-86360000D01*
%TO.C,R8*%
X106330000Y-81280000D02*
G75*
G03*
X106330000Y-81280000I-920000J0D01*
G01*
X104490000Y-81280000D02*
X103870000Y-81280000D01*
%TO.C,R7*%
X106330000Y-91440000D02*
G75*
G03*
X106330000Y-91440000I-920000J0D01*
G01*
X104490000Y-91440000D02*
X103870000Y-91440000D01*
D11*
%TO.C,SU1*%
X47370000Y-63500000D02*
X47370000Y-63500000D01*
X47470000Y-63500000D02*
X47470000Y-63500000D01*
X47370000Y-63500000D02*
X47370000Y-63500000D01*
X48080000Y-58240000D02*
X48080000Y-73840000D01*
X63680000Y-58240000D02*
X48080000Y-58240000D01*
X63680000Y-73840000D02*
X63680000Y-58240000D01*
X48080000Y-73840000D02*
X63680000Y-73840000D01*
X47470000Y-63500000D02*
G75*
G02*
X47370000Y-63500000I-50000J0D01*
G01*
X47370000Y-63500000D02*
G75*
G02*
X47470000Y-63500000I50000J0D01*
G01*
X47470000Y-63500000D02*
G75*
G02*
X47370000Y-63500000I-50000J0D01*
G01*
%TO.C,SS1*%
X79120000Y-34290000D02*
X79120000Y-34290000D01*
X79220000Y-34290000D02*
X79220000Y-34290000D01*
X79120000Y-34290000D02*
X79120000Y-34290000D01*
X79830000Y-29030000D02*
X79830000Y-44630000D01*
X95430000Y-29030000D02*
X79830000Y-29030000D01*
X95430000Y-44630000D02*
X95430000Y-29030000D01*
X79830000Y-44630000D02*
X95430000Y-44630000D01*
X79220000Y-34290000D02*
G75*
G02*
X79120000Y-34290000I-50000J0D01*
G01*
X79120000Y-34290000D02*
G75*
G02*
X79220000Y-34290000I50000J0D01*
G01*
X79220000Y-34290000D02*
G75*
G02*
X79120000Y-34290000I-50000J0D01*
G01*
%TO.C,SR1*%
X68960000Y-85090000D02*
X68960000Y-85090000D01*
X69060000Y-85090000D02*
X69060000Y-85090000D01*
X68960000Y-85090000D02*
X68960000Y-85090000D01*
X69670000Y-79830000D02*
X69670000Y-95430000D01*
X85270000Y-79830000D02*
X69670000Y-79830000D01*
X85270000Y-95430000D02*
X85270000Y-79830000D01*
X69670000Y-95430000D02*
X85270000Y-95430000D01*
X69060000Y-85090000D02*
G75*
G02*
X68960000Y-85090000I-50000J0D01*
G01*
X68960000Y-85090000D02*
G75*
G02*
X69060000Y-85090000I50000J0D01*
G01*
X69060000Y-85090000D02*
G75*
G02*
X68960000Y-85090000I-50000J0D01*
G01*
%TO.C,SL1*%
X25780000Y-85090000D02*
X25780000Y-85090000D01*
X25880000Y-85090000D02*
X25880000Y-85090000D01*
X25780000Y-85090000D02*
X25780000Y-85090000D01*
X26490000Y-79830000D02*
X26490000Y-95430000D01*
X42090000Y-79830000D02*
X26490000Y-79830000D01*
X42090000Y-95430000D02*
X42090000Y-79830000D01*
X26490000Y-95430000D02*
X42090000Y-95430000D01*
X25880000Y-85090000D02*
G75*
G02*
X25780000Y-85090000I-50000J0D01*
G01*
X25780000Y-85090000D02*
G75*
G02*
X25880000Y-85090000I50000J0D01*
G01*
X25880000Y-85090000D02*
G75*
G02*
X25780000Y-85090000I-50000J0D01*
G01*
%TO.C,SE1*%
X100710000Y-34290000D02*
X100710000Y-34290000D01*
X100810000Y-34290000D02*
X100810000Y-34290000D01*
X100710000Y-34290000D02*
X100710000Y-34290000D01*
X101420000Y-29030000D02*
X101420000Y-44630000D01*
X117020000Y-29030000D02*
X101420000Y-29030000D01*
X117020000Y-44630000D02*
X117020000Y-29030000D01*
X101420000Y-44630000D02*
X117020000Y-44630000D01*
X100810000Y-34290000D02*
G75*
G02*
X100710000Y-34290000I-50000J0D01*
G01*
X100710000Y-34290000D02*
G75*
G02*
X100810000Y-34290000I50000J0D01*
G01*
X100810000Y-34290000D02*
G75*
G02*
X100710000Y-34290000I-50000J0D01*
G01*
%TO.C,SD1*%
X47370000Y-85090000D02*
X47370000Y-85090000D01*
X47470000Y-85090000D02*
X47470000Y-85090000D01*
X47370000Y-85090000D02*
X47370000Y-85090000D01*
X48080000Y-79830000D02*
X48080000Y-95430000D01*
X63680000Y-79830000D02*
X48080000Y-79830000D01*
X63680000Y-95430000D02*
X63680000Y-79830000D01*
X48080000Y-95430000D02*
X63680000Y-95430000D01*
X47470000Y-85090000D02*
G75*
G02*
X47370000Y-85090000I-50000J0D01*
G01*
X47370000Y-85090000D02*
G75*
G02*
X47470000Y-85090000I50000J0D01*
G01*
X47470000Y-85090000D02*
G75*
G02*
X47370000Y-85090000I-50000J0D01*
G01*
D10*
%TO.C,R6*%
X27020000Y-66040000D02*
X26400000Y-66040000D01*
X28860000Y-66040000D02*
G75*
G03*
X28860000Y-66040000I-920000J0D01*
G01*
%TO.C,R5*%
X27020000Y-60960000D02*
X26400000Y-60960000D01*
X28860000Y-60960000D02*
G75*
G03*
X28860000Y-60960000I-920000J0D01*
G01*
%TO.C,R4*%
X27020000Y-55880000D02*
X26400000Y-55880000D01*
X28860000Y-55880000D02*
G75*
G03*
X28860000Y-55880000I-920000J0D01*
G01*
%TO.C,R3*%
X27020000Y-50800000D02*
X26400000Y-50800000D01*
X28860000Y-50800000D02*
G75*
G03*
X28860000Y-50800000I-920000J0D01*
G01*
%TO.C,R2*%
X27020000Y-45720000D02*
X26400000Y-45720000D01*
X28860000Y-45720000D02*
G75*
G03*
X28860000Y-45720000I-920000J0D01*
G01*
%TO.C,R1*%
X27020000Y-40640000D02*
X26400000Y-40640000D01*
X28860000Y-40640000D02*
G75*
G03*
X28860000Y-40640000I-920000J0D01*
G01*
%TO.C,J1*%
D12*
X25062380Y-29543333D02*
X25776666Y-29543333D01*
X25919523Y-29590952D01*
X26014761Y-29686190D01*
X26062380Y-29829047D01*
X26062380Y-29924285D01*
X26062380Y-28543333D02*
X26062380Y-29114761D01*
X26062380Y-28829047D02*
X25062380Y-28829047D01*
X25205238Y-28924285D01*
X25300476Y-29019523D01*
X25348095Y-29114761D01*
%TO.C,S456*%
D13*
X205467857Y-91954047D02*
X205649285Y-92014523D01*
X205951666Y-92014523D01*
X206072619Y-91954047D01*
X206133095Y-91893571D01*
X206193571Y-91772619D01*
X206193571Y-91651666D01*
X206133095Y-91530714D01*
X206072619Y-91470238D01*
X205951666Y-91409761D01*
X205709761Y-91349285D01*
X205588809Y-91288809D01*
X205528333Y-91228333D01*
X205467857Y-91107380D01*
X205467857Y-90986428D01*
X205528333Y-90865476D01*
X205588809Y-90805000D01*
X205709761Y-90744523D01*
X206012142Y-90744523D01*
X206193571Y-90805000D01*
X207282142Y-91167857D02*
X207282142Y-92014523D01*
X206979761Y-90684047D02*
X206677380Y-91591190D01*
X207463571Y-91591190D01*
X208552142Y-90744523D02*
X207947380Y-90744523D01*
X207886904Y-91349285D01*
X207947380Y-91288809D01*
X208068333Y-91228333D01*
X208370714Y-91228333D01*
X208491666Y-91288809D01*
X208552142Y-91349285D01*
X208612619Y-91470238D01*
X208612619Y-91772619D01*
X208552142Y-91893571D01*
X208491666Y-91954047D01*
X208370714Y-92014523D01*
X208068333Y-92014523D01*
X207947380Y-91954047D01*
X207886904Y-91893571D01*
X209701190Y-90744523D02*
X209459285Y-90744523D01*
X209338333Y-90805000D01*
X209277857Y-90865476D01*
X209156904Y-91046904D01*
X209096428Y-91288809D01*
X209096428Y-91772619D01*
X209156904Y-91893571D01*
X209217380Y-91954047D01*
X209338333Y-92014523D01*
X209580238Y-92014523D01*
X209701190Y-91954047D01*
X209761666Y-91893571D01*
X209822142Y-91772619D01*
X209822142Y-91470238D01*
X209761666Y-91349285D01*
X209701190Y-91288809D01*
X209580238Y-91228333D01*
X209338333Y-91228333D01*
X209217380Y-91288809D01*
X209156904Y-91349285D01*
X209096428Y-91470238D01*
%TO.C,S123*%
X205467857Y-53219047D02*
X205649285Y-53279523D01*
X205951666Y-53279523D01*
X206072619Y-53219047D01*
X206133095Y-53158571D01*
X206193571Y-53037619D01*
X206193571Y-52916666D01*
X206133095Y-52795714D01*
X206072619Y-52735238D01*
X205951666Y-52674761D01*
X205709761Y-52614285D01*
X205588809Y-52553809D01*
X205528333Y-52493333D01*
X205467857Y-52372380D01*
X205467857Y-52251428D01*
X205528333Y-52130476D01*
X205588809Y-52070000D01*
X205709761Y-52009523D01*
X206012142Y-52009523D01*
X206193571Y-52070000D01*
X207403095Y-53279523D02*
X206677380Y-53279523D01*
X207040238Y-53279523D02*
X207040238Y-52009523D01*
X206919285Y-52190952D01*
X206798333Y-52311904D01*
X206677380Y-52372380D01*
X207886904Y-52130476D02*
X207947380Y-52070000D01*
X208068333Y-52009523D01*
X208370714Y-52009523D01*
X208491666Y-52070000D01*
X208552142Y-52130476D01*
X208612619Y-52251428D01*
X208612619Y-52372380D01*
X208552142Y-52553809D01*
X207826428Y-53279523D01*
X208612619Y-53279523D01*
X209035952Y-52009523D02*
X209822142Y-52009523D01*
X209398809Y-52493333D01*
X209580238Y-52493333D01*
X209701190Y-52553809D01*
X209761666Y-52614285D01*
X209822142Y-52735238D01*
X209822142Y-53037619D01*
X209761666Y-53158571D01*
X209701190Y-53219047D01*
X209580238Y-53279523D01*
X209217380Y-53279523D01*
X209096428Y-53219047D01*
X209035952Y-53158571D01*
%TO.C,S6*%
X185087380Y-44329047D02*
X185268809Y-44389523D01*
X185571190Y-44389523D01*
X185692142Y-44329047D01*
X185752619Y-44268571D01*
X185813095Y-44147619D01*
X185813095Y-44026666D01*
X185752619Y-43905714D01*
X185692142Y-43845238D01*
X185571190Y-43784761D01*
X185329285Y-43724285D01*
X185208333Y-43663809D01*
X185147857Y-43603333D01*
X185087380Y-43482380D01*
X185087380Y-43361428D01*
X185147857Y-43240476D01*
X185208333Y-43180000D01*
X185329285Y-43119523D01*
X185631666Y-43119523D01*
X185813095Y-43180000D01*
X186901666Y-43119523D02*
X186659761Y-43119523D01*
X186538809Y-43180000D01*
X186478333Y-43240476D01*
X186357380Y-43421904D01*
X186296904Y-43663809D01*
X186296904Y-44147619D01*
X186357380Y-44268571D01*
X186417857Y-44329047D01*
X186538809Y-44389523D01*
X186780714Y-44389523D01*
X186901666Y-44329047D01*
X186962142Y-44268571D01*
X187022619Y-44147619D01*
X187022619Y-43845238D01*
X186962142Y-43724285D01*
X186901666Y-43663809D01*
X186780714Y-43603333D01*
X186538809Y-43603333D01*
X186417857Y-43663809D01*
X186357380Y-43724285D01*
X186296904Y-43845238D01*
%TO.C,S5*%
X162862380Y-44329047D02*
X163043809Y-44389523D01*
X163346190Y-44389523D01*
X163467142Y-44329047D01*
X163527619Y-44268571D01*
X163588095Y-44147619D01*
X163588095Y-44026666D01*
X163527619Y-43905714D01*
X163467142Y-43845238D01*
X163346190Y-43784761D01*
X163104285Y-43724285D01*
X162983333Y-43663809D01*
X162922857Y-43603333D01*
X162862380Y-43482380D01*
X162862380Y-43361428D01*
X162922857Y-43240476D01*
X162983333Y-43180000D01*
X163104285Y-43119523D01*
X163406666Y-43119523D01*
X163588095Y-43180000D01*
X164737142Y-43119523D02*
X164132380Y-43119523D01*
X164071904Y-43724285D01*
X164132380Y-43663809D01*
X164253333Y-43603333D01*
X164555714Y-43603333D01*
X164676666Y-43663809D01*
X164737142Y-43724285D01*
X164797619Y-43845238D01*
X164797619Y-44147619D01*
X164737142Y-44268571D01*
X164676666Y-44329047D01*
X164555714Y-44389523D01*
X164253333Y-44389523D01*
X164132380Y-44329047D01*
X164071904Y-44268571D01*
%TO.C,S4*%
X141272380Y-62109047D02*
X141453809Y-62169523D01*
X141756190Y-62169523D01*
X141877142Y-62109047D01*
X141937619Y-62048571D01*
X141998095Y-61927619D01*
X141998095Y-61806666D01*
X141937619Y-61685714D01*
X141877142Y-61625238D01*
X141756190Y-61564761D01*
X141514285Y-61504285D01*
X141393333Y-61443809D01*
X141332857Y-61383333D01*
X141272380Y-61262380D01*
X141272380Y-61141428D01*
X141332857Y-61020476D01*
X141393333Y-60960000D01*
X141514285Y-60899523D01*
X141816666Y-60899523D01*
X141998095Y-60960000D01*
X143086666Y-61322857D02*
X143086666Y-62169523D01*
X142784285Y-60839047D02*
X142481904Y-61746190D01*
X143268095Y-61746190D01*
%TO.C,S3*%
X185087380Y-83064047D02*
X185268809Y-83124523D01*
X185571190Y-83124523D01*
X185692142Y-83064047D01*
X185752619Y-83003571D01*
X185813095Y-82882619D01*
X185813095Y-82761666D01*
X185752619Y-82640714D01*
X185692142Y-82580238D01*
X185571190Y-82519761D01*
X185329285Y-82459285D01*
X185208333Y-82398809D01*
X185147857Y-82338333D01*
X185087380Y-82217380D01*
X185087380Y-82096428D01*
X185147857Y-81975476D01*
X185208333Y-81915000D01*
X185329285Y-81854523D01*
X185631666Y-81854523D01*
X185813095Y-81915000D01*
X186236428Y-81854523D02*
X187022619Y-81854523D01*
X186599285Y-82338333D01*
X186780714Y-82338333D01*
X186901666Y-82398809D01*
X186962142Y-82459285D01*
X187022619Y-82580238D01*
X187022619Y-82882619D01*
X186962142Y-83003571D01*
X186901666Y-83064047D01*
X186780714Y-83124523D01*
X186417857Y-83124523D01*
X186296904Y-83064047D01*
X186236428Y-83003571D01*
%TO.C,S2*%
X162862380Y-83064047D02*
X163043809Y-83124523D01*
X163346190Y-83124523D01*
X163467142Y-83064047D01*
X163527619Y-83003571D01*
X163588095Y-82882619D01*
X163588095Y-82761666D01*
X163527619Y-82640714D01*
X163467142Y-82580238D01*
X163346190Y-82519761D01*
X163104285Y-82459285D01*
X162983333Y-82398809D01*
X162922857Y-82338333D01*
X162862380Y-82217380D01*
X162862380Y-82096428D01*
X162922857Y-81975476D01*
X162983333Y-81915000D01*
X163104285Y-81854523D01*
X163406666Y-81854523D01*
X163588095Y-81915000D01*
X164071904Y-81975476D02*
X164132380Y-81915000D01*
X164253333Y-81854523D01*
X164555714Y-81854523D01*
X164676666Y-81915000D01*
X164737142Y-81975476D01*
X164797619Y-82096428D01*
X164797619Y-82217380D01*
X164737142Y-82398809D01*
X164011428Y-83124523D01*
X164797619Y-83124523D01*
%TO.C,S1*%
X141272380Y-100844047D02*
X141453809Y-100904523D01*
X141756190Y-100904523D01*
X141877142Y-100844047D01*
X141937619Y-100783571D01*
X141998095Y-100662619D01*
X141998095Y-100541666D01*
X141937619Y-100420714D01*
X141877142Y-100360238D01*
X141756190Y-100299761D01*
X141514285Y-100239285D01*
X141393333Y-100178809D01*
X141332857Y-100118333D01*
X141272380Y-99997380D01*
X141272380Y-99876428D01*
X141332857Y-99755476D01*
X141393333Y-99695000D01*
X141514285Y-99634523D01*
X141816666Y-99634523D01*
X141998095Y-99695000D01*
X143207619Y-100904523D02*
X142481904Y-100904523D01*
X142844761Y-100904523D02*
X142844761Y-99634523D01*
X142723809Y-99815952D01*
X142602857Y-99936904D01*
X142481904Y-99997380D01*
%TO.C,R14*%
D12*
X103497142Y-78572380D02*
X103163809Y-78096190D01*
X102925714Y-78572380D02*
X102925714Y-77572380D01*
X103306666Y-77572380D01*
X103401904Y-77620000D01*
X103449523Y-77667619D01*
X103497142Y-77762857D01*
X103497142Y-77905714D01*
X103449523Y-78000952D01*
X103401904Y-78048571D01*
X103306666Y-78096190D01*
X102925714Y-78096190D01*
X104449523Y-78572380D02*
X103878095Y-78572380D01*
X104163809Y-78572380D02*
X104163809Y-77572380D01*
X104068571Y-77715238D01*
X103973333Y-77810476D01*
X103878095Y-77858095D01*
X105306666Y-77905714D02*
X105306666Y-78572380D01*
X105068571Y-77524761D02*
X104830476Y-78239047D01*
X105449523Y-78239047D01*
%TO.C,R13*%
X103497142Y-68412380D02*
X103163809Y-67936190D01*
X102925714Y-68412380D02*
X102925714Y-67412380D01*
X103306666Y-67412380D01*
X103401904Y-67460000D01*
X103449523Y-67507619D01*
X103497142Y-67602857D01*
X103497142Y-67745714D01*
X103449523Y-67840952D01*
X103401904Y-67888571D01*
X103306666Y-67936190D01*
X102925714Y-67936190D01*
X104449523Y-68412380D02*
X103878095Y-68412380D01*
X104163809Y-68412380D02*
X104163809Y-67412380D01*
X104068571Y-67555238D01*
X103973333Y-67650476D01*
X103878095Y-67698095D01*
X104782857Y-67412380D02*
X105401904Y-67412380D01*
X105068571Y-67793333D01*
X105211428Y-67793333D01*
X105306666Y-67840952D01*
X105354285Y-67888571D01*
X105401904Y-67983809D01*
X105401904Y-68221904D01*
X105354285Y-68317142D01*
X105306666Y-68364761D01*
X105211428Y-68412380D01*
X104925714Y-68412380D01*
X104830476Y-68364761D01*
X104782857Y-68317142D01*
%TO.C,R12*%
X103497142Y-63332380D02*
X103163809Y-62856190D01*
X102925714Y-63332380D02*
X102925714Y-62332380D01*
X103306666Y-62332380D01*
X103401904Y-62380000D01*
X103449523Y-62427619D01*
X103497142Y-62522857D01*
X103497142Y-62665714D01*
X103449523Y-62760952D01*
X103401904Y-62808571D01*
X103306666Y-62856190D01*
X102925714Y-62856190D01*
X104449523Y-63332380D02*
X103878095Y-63332380D01*
X104163809Y-63332380D02*
X104163809Y-62332380D01*
X104068571Y-62475238D01*
X103973333Y-62570476D01*
X103878095Y-62618095D01*
X104830476Y-62427619D02*
X104878095Y-62380000D01*
X104973333Y-62332380D01*
X105211428Y-62332380D01*
X105306666Y-62380000D01*
X105354285Y-62427619D01*
X105401904Y-62522857D01*
X105401904Y-62618095D01*
X105354285Y-62760952D01*
X104782857Y-63332380D01*
X105401904Y-63332380D01*
%TO.C,R11*%
X103497142Y-73492380D02*
X103163809Y-73016190D01*
X102925714Y-73492380D02*
X102925714Y-72492380D01*
X103306666Y-72492380D01*
X103401904Y-72540000D01*
X103449523Y-72587619D01*
X103497142Y-72682857D01*
X103497142Y-72825714D01*
X103449523Y-72920952D01*
X103401904Y-72968571D01*
X103306666Y-73016190D01*
X102925714Y-73016190D01*
X104449523Y-73492380D02*
X103878095Y-73492380D01*
X104163809Y-73492380D02*
X104163809Y-72492380D01*
X104068571Y-72635238D01*
X103973333Y-72730476D01*
X103878095Y-72778095D01*
X105401904Y-73492380D02*
X104830476Y-73492380D01*
X105116190Y-73492380D02*
X105116190Y-72492380D01*
X105020952Y-72635238D01*
X104925714Y-72730476D01*
X104830476Y-72778095D01*
%TO.C,R10*%
X103497142Y-58252380D02*
X103163809Y-57776190D01*
X102925714Y-58252380D02*
X102925714Y-57252380D01*
X103306666Y-57252380D01*
X103401904Y-57300000D01*
X103449523Y-57347619D01*
X103497142Y-57442857D01*
X103497142Y-57585714D01*
X103449523Y-57680952D01*
X103401904Y-57728571D01*
X103306666Y-57776190D01*
X102925714Y-57776190D01*
X104449523Y-58252380D02*
X103878095Y-58252380D01*
X104163809Y-58252380D02*
X104163809Y-57252380D01*
X104068571Y-57395238D01*
X103973333Y-57490476D01*
X103878095Y-57538095D01*
X105068571Y-57252380D02*
X105163809Y-57252380D01*
X105259047Y-57300000D01*
X105306666Y-57347619D01*
X105354285Y-57442857D01*
X105401904Y-57633333D01*
X105401904Y-57871428D01*
X105354285Y-58061904D01*
X105306666Y-58157142D01*
X105259047Y-58204761D01*
X105163809Y-58252380D01*
X105068571Y-58252380D01*
X104973333Y-58204761D01*
X104925714Y-58157142D01*
X104878095Y-58061904D01*
X104830476Y-57871428D01*
X104830476Y-57633333D01*
X104878095Y-57442857D01*
X104925714Y-57347619D01*
X104973333Y-57300000D01*
X105068571Y-57252380D01*
%TO.C,R9*%
X103973333Y-88732380D02*
X103640000Y-88256190D01*
X103401904Y-88732380D02*
X103401904Y-87732380D01*
X103782857Y-87732380D01*
X103878095Y-87780000D01*
X103925714Y-87827619D01*
X103973333Y-87922857D01*
X103973333Y-88065714D01*
X103925714Y-88160952D01*
X103878095Y-88208571D01*
X103782857Y-88256190D01*
X103401904Y-88256190D01*
X104449523Y-88732380D02*
X104640000Y-88732380D01*
X104735238Y-88684761D01*
X104782857Y-88637142D01*
X104878095Y-88494285D01*
X104925714Y-88303809D01*
X104925714Y-87922857D01*
X104878095Y-87827619D01*
X104830476Y-87780000D01*
X104735238Y-87732380D01*
X104544761Y-87732380D01*
X104449523Y-87780000D01*
X104401904Y-87827619D01*
X104354285Y-87922857D01*
X104354285Y-88160952D01*
X104401904Y-88256190D01*
X104449523Y-88303809D01*
X104544761Y-88351428D01*
X104735238Y-88351428D01*
X104830476Y-88303809D01*
X104878095Y-88256190D01*
X104925714Y-88160952D01*
%TO.C,R8*%
X103973333Y-83652380D02*
X103640000Y-83176190D01*
X103401904Y-83652380D02*
X103401904Y-82652380D01*
X103782857Y-82652380D01*
X103878095Y-82700000D01*
X103925714Y-82747619D01*
X103973333Y-82842857D01*
X103973333Y-82985714D01*
X103925714Y-83080952D01*
X103878095Y-83128571D01*
X103782857Y-83176190D01*
X103401904Y-83176190D01*
X104544761Y-83080952D02*
X104449523Y-83033333D01*
X104401904Y-82985714D01*
X104354285Y-82890476D01*
X104354285Y-82842857D01*
X104401904Y-82747619D01*
X104449523Y-82700000D01*
X104544761Y-82652380D01*
X104735238Y-82652380D01*
X104830476Y-82700000D01*
X104878095Y-82747619D01*
X104925714Y-82842857D01*
X104925714Y-82890476D01*
X104878095Y-82985714D01*
X104830476Y-83033333D01*
X104735238Y-83080952D01*
X104544761Y-83080952D01*
X104449523Y-83128571D01*
X104401904Y-83176190D01*
X104354285Y-83271428D01*
X104354285Y-83461904D01*
X104401904Y-83557142D01*
X104449523Y-83604761D01*
X104544761Y-83652380D01*
X104735238Y-83652380D01*
X104830476Y-83604761D01*
X104878095Y-83557142D01*
X104925714Y-83461904D01*
X104925714Y-83271428D01*
X104878095Y-83176190D01*
X104830476Y-83128571D01*
X104735238Y-83080952D01*
%TO.C,R7*%
X103973333Y-93812380D02*
X103640000Y-93336190D01*
X103401904Y-93812380D02*
X103401904Y-92812380D01*
X103782857Y-92812380D01*
X103878095Y-92860000D01*
X103925714Y-92907619D01*
X103973333Y-93002857D01*
X103973333Y-93145714D01*
X103925714Y-93240952D01*
X103878095Y-93288571D01*
X103782857Y-93336190D01*
X103401904Y-93336190D01*
X104306666Y-92812380D02*
X104973333Y-92812380D01*
X104544761Y-93812380D01*
%TO.C,SU1*%
D13*
X54247142Y-66554047D02*
X54428571Y-66614523D01*
X54730952Y-66614523D01*
X54851904Y-66554047D01*
X54912380Y-66493571D01*
X54972857Y-66372619D01*
X54972857Y-66251666D01*
X54912380Y-66130714D01*
X54851904Y-66070238D01*
X54730952Y-66009761D01*
X54489047Y-65949285D01*
X54368095Y-65888809D01*
X54307619Y-65828333D01*
X54247142Y-65707380D01*
X54247142Y-65586428D01*
X54307619Y-65465476D01*
X54368095Y-65405000D01*
X54489047Y-65344523D01*
X54791428Y-65344523D01*
X54972857Y-65405000D01*
X55517142Y-65344523D02*
X55517142Y-66372619D01*
X55577619Y-66493571D01*
X55638095Y-66554047D01*
X55759047Y-66614523D01*
X56000952Y-66614523D01*
X56121904Y-66554047D01*
X56182380Y-66493571D01*
X56242857Y-66372619D01*
X56242857Y-65344523D01*
X57512857Y-66614523D02*
X56787142Y-66614523D01*
X57150000Y-66614523D02*
X57150000Y-65344523D01*
X57029047Y-65525952D01*
X56908095Y-65646904D01*
X56787142Y-65707380D01*
%TO.C,SS1*%
X86057619Y-37344047D02*
X86239047Y-37404523D01*
X86541428Y-37404523D01*
X86662380Y-37344047D01*
X86722857Y-37283571D01*
X86783333Y-37162619D01*
X86783333Y-37041666D01*
X86722857Y-36920714D01*
X86662380Y-36860238D01*
X86541428Y-36799761D01*
X86299523Y-36739285D01*
X86178571Y-36678809D01*
X86118095Y-36618333D01*
X86057619Y-36497380D01*
X86057619Y-36376428D01*
X86118095Y-36255476D01*
X86178571Y-36195000D01*
X86299523Y-36134523D01*
X86601904Y-36134523D01*
X86783333Y-36195000D01*
X87267142Y-37344047D02*
X87448571Y-37404523D01*
X87750952Y-37404523D01*
X87871904Y-37344047D01*
X87932380Y-37283571D01*
X87992857Y-37162619D01*
X87992857Y-37041666D01*
X87932380Y-36920714D01*
X87871904Y-36860238D01*
X87750952Y-36799761D01*
X87509047Y-36739285D01*
X87388095Y-36678809D01*
X87327619Y-36618333D01*
X87267142Y-36497380D01*
X87267142Y-36376428D01*
X87327619Y-36255476D01*
X87388095Y-36195000D01*
X87509047Y-36134523D01*
X87811428Y-36134523D01*
X87992857Y-36195000D01*
X89202380Y-37404523D02*
X88476666Y-37404523D01*
X88839523Y-37404523D02*
X88839523Y-36134523D01*
X88718571Y-36315952D01*
X88597619Y-36436904D01*
X88476666Y-36497380D01*
%TO.C,SR1*%
X75867380Y-88144047D02*
X76048809Y-88204523D01*
X76351190Y-88204523D01*
X76472142Y-88144047D01*
X76532619Y-88083571D01*
X76593095Y-87962619D01*
X76593095Y-87841666D01*
X76532619Y-87720714D01*
X76472142Y-87660238D01*
X76351190Y-87599761D01*
X76109285Y-87539285D01*
X75988333Y-87478809D01*
X75927857Y-87418333D01*
X75867380Y-87297380D01*
X75867380Y-87176428D01*
X75927857Y-87055476D01*
X75988333Y-86995000D01*
X76109285Y-86934523D01*
X76411666Y-86934523D01*
X76593095Y-86995000D01*
X77863095Y-88204523D02*
X77439761Y-87599761D01*
X77137380Y-88204523D02*
X77137380Y-86934523D01*
X77621190Y-86934523D01*
X77742142Y-86995000D01*
X77802619Y-87055476D01*
X77863095Y-87176428D01*
X77863095Y-87357857D01*
X77802619Y-87478809D01*
X77742142Y-87539285D01*
X77621190Y-87599761D01*
X77137380Y-87599761D01*
X79072619Y-88204523D02*
X78346904Y-88204523D01*
X78709761Y-88204523D02*
X78709761Y-86934523D01*
X78588809Y-87115952D01*
X78467857Y-87236904D01*
X78346904Y-87297380D01*
%TO.C,SL1*%
X32808333Y-88144047D02*
X32989761Y-88204523D01*
X33292142Y-88204523D01*
X33413095Y-88144047D01*
X33473571Y-88083571D01*
X33534047Y-87962619D01*
X33534047Y-87841666D01*
X33473571Y-87720714D01*
X33413095Y-87660238D01*
X33292142Y-87599761D01*
X33050238Y-87539285D01*
X32929285Y-87478809D01*
X32868809Y-87418333D01*
X32808333Y-87297380D01*
X32808333Y-87176428D01*
X32868809Y-87055476D01*
X32929285Y-86995000D01*
X33050238Y-86934523D01*
X33352619Y-86934523D01*
X33534047Y-86995000D01*
X34683095Y-88204523D02*
X34078333Y-88204523D01*
X34078333Y-86934523D01*
X35771666Y-88204523D02*
X35045952Y-88204523D01*
X35408809Y-88204523D02*
X35408809Y-86934523D01*
X35287857Y-87115952D01*
X35166904Y-87236904D01*
X35045952Y-87297380D01*
%TO.C,SE1*%
X107677857Y-37344047D02*
X107859285Y-37404523D01*
X108161666Y-37404523D01*
X108282619Y-37344047D01*
X108343095Y-37283571D01*
X108403571Y-37162619D01*
X108403571Y-37041666D01*
X108343095Y-36920714D01*
X108282619Y-36860238D01*
X108161666Y-36799761D01*
X107919761Y-36739285D01*
X107798809Y-36678809D01*
X107738333Y-36618333D01*
X107677857Y-36497380D01*
X107677857Y-36376428D01*
X107738333Y-36255476D01*
X107798809Y-36195000D01*
X107919761Y-36134523D01*
X108222142Y-36134523D01*
X108403571Y-36195000D01*
X108947857Y-36739285D02*
X109371190Y-36739285D01*
X109552619Y-37404523D02*
X108947857Y-37404523D01*
X108947857Y-36134523D01*
X109552619Y-36134523D01*
X110762142Y-37404523D02*
X110036428Y-37404523D01*
X110399285Y-37404523D02*
X110399285Y-36134523D01*
X110278333Y-36315952D01*
X110157380Y-36436904D01*
X110036428Y-36497380D01*
%TO.C,SD1*%
X54277380Y-88144047D02*
X54458809Y-88204523D01*
X54761190Y-88204523D01*
X54882142Y-88144047D01*
X54942619Y-88083571D01*
X55003095Y-87962619D01*
X55003095Y-87841666D01*
X54942619Y-87720714D01*
X54882142Y-87660238D01*
X54761190Y-87599761D01*
X54519285Y-87539285D01*
X54398333Y-87478809D01*
X54337857Y-87418333D01*
X54277380Y-87297380D01*
X54277380Y-87176428D01*
X54337857Y-87055476D01*
X54398333Y-86995000D01*
X54519285Y-86934523D01*
X54821666Y-86934523D01*
X55003095Y-86995000D01*
X55547380Y-88204523D02*
X55547380Y-86934523D01*
X55849761Y-86934523D01*
X56031190Y-86995000D01*
X56152142Y-87115952D01*
X56212619Y-87236904D01*
X56273095Y-87478809D01*
X56273095Y-87660238D01*
X56212619Y-87902142D01*
X56152142Y-88023095D01*
X56031190Y-88144047D01*
X55849761Y-88204523D01*
X55547380Y-88204523D01*
X57482619Y-88204523D02*
X56756904Y-88204523D01*
X57119761Y-88204523D02*
X57119761Y-86934523D01*
X56998809Y-87115952D01*
X56877857Y-87236904D01*
X56756904Y-87297380D01*
%TO.C,R6*%
D12*
X26503333Y-68412380D02*
X26170000Y-67936190D01*
X25931904Y-68412380D02*
X25931904Y-67412380D01*
X26312857Y-67412380D01*
X26408095Y-67460000D01*
X26455714Y-67507619D01*
X26503333Y-67602857D01*
X26503333Y-67745714D01*
X26455714Y-67840952D01*
X26408095Y-67888571D01*
X26312857Y-67936190D01*
X25931904Y-67936190D01*
X27360476Y-67412380D02*
X27170000Y-67412380D01*
X27074761Y-67460000D01*
X27027142Y-67507619D01*
X26931904Y-67650476D01*
X26884285Y-67840952D01*
X26884285Y-68221904D01*
X26931904Y-68317142D01*
X26979523Y-68364761D01*
X27074761Y-68412380D01*
X27265238Y-68412380D01*
X27360476Y-68364761D01*
X27408095Y-68317142D01*
X27455714Y-68221904D01*
X27455714Y-67983809D01*
X27408095Y-67888571D01*
X27360476Y-67840952D01*
X27265238Y-67793333D01*
X27074761Y-67793333D01*
X26979523Y-67840952D01*
X26931904Y-67888571D01*
X26884285Y-67983809D01*
%TO.C,R5*%
X26503333Y-63332380D02*
X26170000Y-62856190D01*
X25931904Y-63332380D02*
X25931904Y-62332380D01*
X26312857Y-62332380D01*
X26408095Y-62380000D01*
X26455714Y-62427619D01*
X26503333Y-62522857D01*
X26503333Y-62665714D01*
X26455714Y-62760952D01*
X26408095Y-62808571D01*
X26312857Y-62856190D01*
X25931904Y-62856190D01*
X27408095Y-62332380D02*
X26931904Y-62332380D01*
X26884285Y-62808571D01*
X26931904Y-62760952D01*
X27027142Y-62713333D01*
X27265238Y-62713333D01*
X27360476Y-62760952D01*
X27408095Y-62808571D01*
X27455714Y-62903809D01*
X27455714Y-63141904D01*
X27408095Y-63237142D01*
X27360476Y-63284761D01*
X27265238Y-63332380D01*
X27027142Y-63332380D01*
X26931904Y-63284761D01*
X26884285Y-63237142D01*
%TO.C,R4*%
X26503333Y-58252380D02*
X26170000Y-57776190D01*
X25931904Y-58252380D02*
X25931904Y-57252380D01*
X26312857Y-57252380D01*
X26408095Y-57300000D01*
X26455714Y-57347619D01*
X26503333Y-57442857D01*
X26503333Y-57585714D01*
X26455714Y-57680952D01*
X26408095Y-57728571D01*
X26312857Y-57776190D01*
X25931904Y-57776190D01*
X27360476Y-57585714D02*
X27360476Y-58252380D01*
X27122380Y-57204761D02*
X26884285Y-57919047D01*
X27503333Y-57919047D01*
%TO.C,R3*%
X26503333Y-53172380D02*
X26170000Y-52696190D01*
X25931904Y-53172380D02*
X25931904Y-52172380D01*
X26312857Y-52172380D01*
X26408095Y-52220000D01*
X26455714Y-52267619D01*
X26503333Y-52362857D01*
X26503333Y-52505714D01*
X26455714Y-52600952D01*
X26408095Y-52648571D01*
X26312857Y-52696190D01*
X25931904Y-52696190D01*
X26836666Y-52172380D02*
X27455714Y-52172380D01*
X27122380Y-52553333D01*
X27265238Y-52553333D01*
X27360476Y-52600952D01*
X27408095Y-52648571D01*
X27455714Y-52743809D01*
X27455714Y-52981904D01*
X27408095Y-53077142D01*
X27360476Y-53124761D01*
X27265238Y-53172380D01*
X26979523Y-53172380D01*
X26884285Y-53124761D01*
X26836666Y-53077142D01*
%TO.C,R2*%
X26503333Y-48092380D02*
X26170000Y-47616190D01*
X25931904Y-48092380D02*
X25931904Y-47092380D01*
X26312857Y-47092380D01*
X26408095Y-47140000D01*
X26455714Y-47187619D01*
X26503333Y-47282857D01*
X26503333Y-47425714D01*
X26455714Y-47520952D01*
X26408095Y-47568571D01*
X26312857Y-47616190D01*
X25931904Y-47616190D01*
X26884285Y-47187619D02*
X26931904Y-47140000D01*
X27027142Y-47092380D01*
X27265238Y-47092380D01*
X27360476Y-47140000D01*
X27408095Y-47187619D01*
X27455714Y-47282857D01*
X27455714Y-47378095D01*
X27408095Y-47520952D01*
X26836666Y-48092380D01*
X27455714Y-48092380D01*
%TO.C,R1*%
X26503333Y-43012380D02*
X26170000Y-42536190D01*
X25931904Y-43012380D02*
X25931904Y-42012380D01*
X26312857Y-42012380D01*
X26408095Y-42060000D01*
X26455714Y-42107619D01*
X26503333Y-42202857D01*
X26503333Y-42345714D01*
X26455714Y-42440952D01*
X26408095Y-42488571D01*
X26312857Y-42536190D01*
X25931904Y-42536190D01*
X27455714Y-43012380D02*
X26884285Y-43012380D01*
X27170000Y-43012380D02*
X27170000Y-42012380D01*
X27074761Y-42155238D01*
X26979523Y-42250476D01*
X26884285Y-42298095D01*
%TD*%
M02*
